<mxfile host="app.diagrams.net" modified="2024-03-21T06:46:37.546Z" agent="Mozilla/5.0 (Windows NT 10.0; Win64; x64) AppleWebKit/537.36 (KHTML, like Gecko) Chrome/122.0.0.0 Safari/537.36 Edg/122.0.0.0" version="24.0.7" etag="JIMgp96jKW9o_i6nS2d-" type="github">
  <diagram name="Page-1" id="rW_Pg0Yd-Ey4T45wm_xk">
    <mxGraphModel>
      <root>
        <mxCell id="0" />
        <mxCell id="1" parent="0" />
      </root>
    </mxGraphModel>
  </diagram>
</mxfile>
